<?xml version="1.0" encoding="UTF-8" standalone="no"?>
<svg
   version="1.1"
   id="Layer_1"
   x="0px"
   y="0px"
   viewBox="0 0 122.88 89.09"
   style="enable-background:new 0 0 122.88 89.09"
   xml:space="preserve"
   sodipodi:docname="folder_code.svg"
   inkscape:version="1.4.2 (ebf0e940d0, 2025-05-08)"
   xmlns:inkscape="http://www.inkscape.org/namespaces/inkscape"
   xmlns:sodipodi="http://sodipodi.sourceforge.net/DTD/sodipodi-0.dtd"
   xmlns="http://www.w3.org/2000/svg"
   xmlns:svg="http://www.w3.org/2000/svg"><defs
     id="defs2" /><sodipodi:namedview
     id="namedview2"
     pagecolor="#ffffff"
     bordercolor="#000000"
     borderopacity="0.25"
     inkscape:showpageshadow="2"
     inkscape:pageopacity="0.0"
     inkscape:pagecheckerboard="0"
     inkscape:deskcolor="#d1d1d1"
     inkscape:zoom="5.6738875"
     inkscape:cx="56.751213"
     inkscape:cy="40.095966"
     inkscape:window-width="1626"
     inkscape:window-height="963"
     inkscape:window-x="0"
     inkscape:window-y="0"
     inkscape:window-maximized="1"
     inkscape:current-layer="Layer_1" /><style
     type="text/css"
     id="style1">.st0{fill-rule:evenodd;clip-rule:evenodd;fill:#DE9C2D;} .st1{fill-rule:evenodd;clip-rule:evenodd;fill:#FAD460;}</style><g
     id="g2"><path
       class="st0"
       d="M3.97,9.75l-3.93,8.73l122.77,0.01l-3.96-8.74H55.82c-1.59,0-2.88-1.29-2.88-2.88V0H11.97v6.87 c0,1.59-1.29,2.88-2.88,2.88H3.97L3.97,9.75L3.97,9.75z"
       id="path1" /><path
       class="st1"
       d="M4.63,18.48H0l7.03,67.03c0.11,1.07,0.55,2.02,1.2,2.69c0.55,0.55,1.28,0.89,2.11,0.89h100.1 c0.82,0,1.51-0.33,2.05-0.87c0.68-0.68,1.13-1.67,1.28-2.79l9.1-66.94H4.63V18.48L4.63,18.48z"
       id="path2" /></g><text
     xml:space="preserve"
     style="font-size:53.3333px;text-align:start;writing-mode:lr-tb;direction:ltr;text-anchor:start;fill:#000000"
     x="14.565027"
     y="74.001549"
     id="text2"><tspan
       id="tspan2"
       x="14.565027"
       y="74.001549"
       sodipodi:role="line"
       style="font-size:53.3333px">&lt;\&gt;</tspan></text></svg>
